<svg xmlns="http://www.w3.org/2000/svg" xmlns:xlink="http://www.w3.org/1999/xlink" width="204" height="72" viewBox="0 0 204 72"><defs><path id="4hz7c" d="M543.42 46.04a22.19 22.19 0 0 0-21.17 15.58h7.87a14.85 14.85 0 0 1 13.3-8.25h3.41c2.82 0 5.11-2.29 5.11-5.11v-2.22z"/><path id="4hz7d" d="M546.83 83.12h-3.41a14.85 14.85 0 0 1-13.3-8.24h-7.87a22.19 22.19 0 0 0 21.17 15.58h8.52v-2.22a5.11 5.11 0 0 0-5.1-5.12"/><path id="4hz7e" d="M508 68.25a35.44 35.44 0 0 0 35.42 35.47h8.52v-2.22a5.11 5.11 0 0 0-5.11-5.12h-3.41a28.1 28.1 0 0 1-27.85-24.46h27.85v-7.33h-27.85a28.1 28.1 0 0 1 27.85-24.47h3.4c2.83 0 5.12-2.29 5.12-5.11v-2.22h-8.52A35.44 35.44 0 0 0 508 68.25"/><path id="4hz7f" d="M569.02 32.88c.11.06.25.19.4.38L581.2 48.6a9.48 9.48 0 0 1-.07-1.4V32.8h2.42v20.37h-1.4c-.21 0-.4-.04-.54-.11-.15-.08-.3-.2-.43-.39L569.4 37.32a17.2 17.2 0 0 1 .05 1.33v14.51h-2.41V32.8h1.42c.25 0 .43.03.55.1"/><path id="4hz7a" d="M586.69 32.56h13.19v20.83h-13.19z"/><path id="4hz7h" d="M598.76 35.97a1.1 1.1 0 0 1-.27.32.6.6 0 0 1-.37.1c-.16 0-.35-.07-.56-.23a6.6 6.6 0 0 0-1.99-1.07 5.06 5.06 0 0 0-1.67-.24c-.61 0-1.16.08-1.63.25-.47.16-.87.39-1.19.67-.31.29-.55.62-.71 1-.16.39-.24.8-.24 1.25 0 .57.14 1.04.41 1.41.28.38.65.7 1.11.96.46.27.98.5 1.56.7l1.8.6c.6.2 1.2.44 1.78.7.58.26 1.1.59 1.56.99a4.48 4.48 0 0 1 1.53 3.6c0 .89-.15 1.72-.46 2.5a5.78 5.78 0 0 1-3.47 3.4 7.9 7.9 0 0 1-2.89.5 8.81 8.81 0 0 1-3.6-.71 8.43 8.43 0 0 1-2.77-1.94l.8-1.31c.07-.1.16-.2.27-.26.11-.07.23-.1.36-.1.2 0 .43.1.69.31a7.27 7.27 0 0 0 2.35 1.4c.54.22 1.2.33 1.99.33.65 0 1.23-.1 1.75-.27a3.7 3.7 0 0 0 1.3-.76c.35-.33.62-.72.81-1.18.19-.45.28-.96.28-1.52 0-.61-.14-1.12-.41-1.51-.28-.4-.65-.72-1.1-.99-.46-.26-.98-.49-1.56-.67l-1.79-.57c-.6-.2-1.2-.42-1.79-.68a5.82 5.82 0 0 1-1.55-1c-.46-.4-.82-.91-1.1-1.52a5.44 5.44 0 0 1-.42-2.27 5.4 5.4 0 0 1 1.63-3.88 5.86 5.86 0 0 1 1.97-1.25 8.6 8.6 0 0 1 5.8.07c.93.36 1.75.88 2.45 1.56z"/><path id="4hz7i" d="M601.26 32.79h2.29a.9.9 0 0 1 .94.65l4.2 14.16a27.17 27.17 0 0 1 .38 1.75l.2-.93c.06-.3.14-.57.22-.82l4.79-14.16c.05-.16.17-.3.33-.44.17-.14.37-.21.6-.21h.8c.25 0 .45.06.6.18.16.13.27.28.34.47l4.75 14.16c.17.5.32 1.06.46 1.7l.15-.9c.05-.29.11-.55.19-.8l4.21-14.16a.89.89 0 0 1 .32-.45c.17-.13.37-.2.6-.2h2.15l-6.35 20.37h-2.47l-5.15-15.54c-.1-.29-.2-.63-.28-1.02a105.42 105.42 0 0 0-.27 1.02l-5.18 15.54h-2.47z"/><path id="4hz7j" d="M580.15 58.03v2.68c0 .53-.43.96-.96.96h-7.4v4.75h6.4v3.5h-6.4v4.85h7.4c.53 0 .96.42.96.95v2.68h-13.1V58.03z"/><path id="4hz7k" d="M586.96 58.99V78.4h-4.33V58.03H586c.53 0 .96.43.96.96"/><path id="4hz7l" d="M596.39 63.68c.96 0 1.83.15 2.63.45a5.73 5.73 0 0 1 3.4 3.39 7.7 7.7 0 0 1 .43 3.6c-.03.2-.08.37-.15.49a.58.58 0 0 1-.3.25c-.13.05-.29.07-.48.07h-8.35c.14 1.21.5 2.09 1.1 2.63.6.55 1.36.82 2.3.82.5 0 .94-.06 1.3-.18.37-.12.69-.26.97-.4l.79-.41c.23-.12.48-.18.74-.18.35 0 .6.12.78.37l1.26 1.56c-.45.5-.93.93-1.44 1.25a7.52 7.52 0 0 1-3.23 1.13c-.54.07-1.06.1-1.56.1a8.12 8.12 0 0 1-2.85-.5 6.54 6.54 0 0 1-3.91-3.9 9.11 9.11 0 0 1-.08-6.14 6.78 6.78 0 0 1 6.65-4.4m.08 3a2.6 2.6 0 0 0-1.94.7 3.67 3.67 0 0 0-.92 2.03h5.4c0-.34-.04-.68-.13-1a2.2 2.2 0 0 0-1.22-1.5 2.7 2.7 0 0 0-1.19-.24"/><path id="4hz7m" d="M615.7 67.34a2.4 2.4 0 0 1-.37.38c-.13.1-.3.14-.52.14-.22 0-.4-.05-.58-.15l-.58-.35a3.23 3.23 0 0 0-1.83-.5 3 3 0 0 0-1.37.3c-.4.2-.7.48-.96.84-.25.36-.44.8-.56 1.34a8 8 0 0 0-.18 1.78c0 1.39.27 2.45.8 3.2a2.58 2.58 0 0 0 2.21 1.12c.5 0 .9-.06 1.2-.2.3-.12.54-.26.75-.41l.56-.43c.17-.13.39-.2.65-.2.34 0 .6.13.78.38l1.26 1.56a6.83 6.83 0 0 1-4.48 2.38c-.52.07-1.03.1-1.52.1a6.52 6.52 0 0 1-4.66-1.96 6.99 6.99 0 0 1-1.45-2.35c-.36-.94-.54-2-.54-3.2 0-1.04.16-2.01.47-2.92a6.44 6.44 0 0 1 3.64-3.94c.9-.38 1.94-.57 3.12-.57a7.6 7.6 0 0 1 2.99.55c.86.36 1.63.9 2.32 1.59z"/><path id="4hz7n" d="M624.18 78.63c-.69 0-1.3-.1-1.82-.3a3.6 3.6 0 0 1-2.14-2.19 5.16 5.16 0 0 1-.28-1.75V66.9h-1.23a.82.82 0 0 1-.57-.22c-.16-.14-.24-.35-.24-.63v-1.7l2.3-.44.86-3.54c.1-.45.42-.67.94-.67h2.27v4.24h3.51v2.96h-3.51v7.2c0 .34.08.61.24.83.16.22.4.33.7.33a1.37 1.37 0 0 0 .68-.16l.23-.11a.57.57 0 0 1 .24-.05.5.5 0 0 1 .31.09c.08.06.17.16.25.29l1.31 2.05c-.56.42-1.19.74-1.88.95-.7.2-1.42.31-2.17.31"/><path id="4hz7o" d="M636.16 63.68c1.1 0 2.1.17 3 .52a6.59 6.59 0 0 1 3.83 3.82c.36.92.54 1.95.54 3.1a8.6 8.6 0 0 1-.54 3.12 6.63 6.63 0 0 1-3.83 3.86c-.9.35-1.9.53-3 .53-1.11 0-2.12-.18-3.03-.53a6.62 6.62 0 0 1-3.87-3.86 8.62 8.62 0 0 1-.53-3.12c0-1.15.18-2.18.54-3.1a6.58 6.58 0 0 1 3.86-3.82c.91-.35 1.92-.52 3.03-.52m0 11.73c1 0 1.73-.35 2.2-1.06.47-.7.7-1.77.7-3.2 0-1.44-.23-2.5-.7-3.2-.47-.7-1.2-1.05-2.2-1.05-1.03 0-1.78.35-2.25 1.04-.48.7-.71 1.77-.71 3.2 0 1.44.23 2.51.71 3.21.47.7 1.22 1.06 2.25 1.06"/><path id="4hz7p" d="M666.8 78.4c-.4 0-.71-.06-.92-.17-.21-.11-.39-.35-.53-.7l-.3-.8c-.37.31-.72.58-1.05.81a6.6 6.6 0 0 1-1.04.6c-.36.16-.74.28-1.15.36a7.08 7.08 0 0 1-3.14-.14 3.37 3.37 0 0 1-2.25-2.02c-.2-.5-.31-1.08-.31-1.73a3.64 3.64 0 0 1 1.75-3.06c.64-.45 1.5-.82 2.6-1.12 1.08-.3 2.45-.45 4.11-.45v-.62c0-.86-.17-1.47-.52-1.85-.35-.39-.85-.58-1.49-.58a3.95 3.95 0 0 0-2.13.55c-.25.14-.5.26-.74.38-.25.1-.54.16-.87.16-.3 0-.55-.07-.76-.21a1.6 1.6 0 0 1-.5-.54l-.78-1.36a8.79 8.79 0 0 1 2.91-1.72 10.2 10.2 0 0 1 3.43-.57c.87 0 1.66.14 2.37.43a5.1 5.1 0 0 1 2.9 3c.27.7.4 1.46.4 2.29v9.06zm-4.97-2.64a3.43 3.43 0 0 0 2.74-1.25v-1.98c-.86 0-1.58.05-2.13.16-.56.12-1 .26-1.33.43a1.6 1.6 0 0 0-.68.58c-.12.21-.19.45-.19.7 0 .5.14.85.4 1.05.28.2.67.3 1.2.3z"/><path id="4hz7q" d="M645.73 78.4V63.9h2.57c.21 0 .4.02.54.06.14.03.26.1.36.17.1.08.17.18.22.31.05.13.1.3.14.48l.23 1.36a7.09 7.09 0 0 1 1.79-1.95 3.63 3.63 0 0 1 2.16-.71c.66 0 1.2.16 1.6.48l-.56 3.18c-.04.2-.11.34-.23.42a.76.76 0 0 1-.44.11c-.16 0-.35-.02-.56-.06a4.34 4.34 0 0 0-.81-.06c-1.14 0-2.03.6-2.68 1.82v8.89z"/><path id="4hz7r" d="M581.56 99.44c.15 0 .29.06.41.18l1.08 1.18a8.7 8.7 0 0 1-3.03 2.26c-1.19.54-2.62.81-4.3.81-1.46 0-2.8-.25-3.98-.76a8.75 8.75 0 0 1-3.06-2.13 9.65 9.65 0 0 1-1.95-3.29 12.3 12.3 0 0 1-.7-4.22c0-1.54.25-2.94.75-4.22a9.37 9.37 0 0 1 5.32-5.44c1.25-.5 2.64-.76 4.15-.76 1.5 0 2.79.23 3.87.7a9.8 9.8 0 0 1 2.89 1.89l-.9 1.26a.97.97 0 0 1-.22.24.72.72 0 0 1-.76-.04l-.5-.34a5.78 5.78 0 0 0-1.58-.85 7.54 7.54 0 0 0-2.81-.47c-1.1 0-2.09.19-3 .56a6.7 6.7 0 0 0-3.85 4.13c-.37 1-.55 2.1-.55 3.34 0 1.27.18 2.4.55 3.4a7.5 7.5 0 0 0 1.49 2.52 6.29 6.29 0 0 0 2.23 1.57c.86.36 1.8.54 2.79.54.6 0 1.15-.03 1.63-.1a6.66 6.66 0 0 0 2.49-.92c.36-.23.71-.5 1.07-.83.16-.14.32-.21.47-.21"/><path id="4hz7s" d="M591.68 89.02c1.05 0 2 .18 2.85.53a6 6 0 0 1 2.15 1.49c.6.64 1.05 1.42 1.37 2.34.31.91.47 1.93.47 3.06 0 1.14-.16 2.16-.47 3.07a6.62 6.62 0 0 1-1.37 2.33 5.91 5.91 0 0 1-2.15 1.49c-.85.34-1.8.52-2.85.52s-2-.18-2.85-.52a5.99 5.99 0 0 1-2.16-1.49 6.64 6.64 0 0 1-1.38-2.33 9.16 9.16 0 0 1-.48-3.07c0-1.13.16-2.15.48-3.06.32-.92.78-1.7 1.38-2.34a6.07 6.07 0 0 1 2.16-1.5c.85-.34 1.8-.52 2.85-.52m0 12.85c1.42 0 2.48-.48 3.18-1.43.7-.95 1.05-2.28 1.05-3.99 0-1.71-.35-3.05-1.05-4-.7-.96-1.76-1.44-3.18-1.44-.72 0-1.34.12-1.87.37s-.98.6-1.33 1.07a4.74 4.74 0 0 0-.8 1.7 9.17 9.17 0 0 0-.26 2.3c0 .86.09 1.62.26 2.3.18.67.44 1.23.8 1.7.35.45.8.8 1.33 1.05s1.15.37 1.87.37"/><path id="4hz7t" d="M601.34 103.65v-14.4h1.5c.36 0 .6.17.69.52l.18 1.48a7.37 7.37 0 0 1 1.78-1.6 4.19 4.19 0 0 1 2.3-.63c.97 0 1.76.27 2.36.81.6.54 1.03 1.27 1.3 2.19a4.5 4.5 0 0 1 3.18-2.83 5.78 5.78 0 0 1 3.43.2c.59.23 1.09.59 1.5 1.05.41.47.73 1.04.94 1.71.22.68.33 1.46.33 2.33v9.17h-2.53v-9.17c0-1.13-.24-1.98-.73-2.57-.5-.58-1.21-.87-2.15-.87-.41 0-.8.07-1.18.22a2.84 2.84 0 0 0-1.66 1.72c-.17.43-.25.93-.25 1.5v9.17h-2.53v-9.17c0-1.16-.23-2.02-.7-2.59-.46-.57-1.14-.85-2.02-.85-.63 0-1.2.17-1.74.5a5.7 5.7 0 0 0-1.47 1.38v10.73z"/><path id="4hz7u" d="M624.33 103.65v-14.4h1.5c.36 0 .6.17.69.52l.18 1.48a7.37 7.37 0 0 1 1.78-1.6 4.19 4.19 0 0 1 2.3-.63c.97 0 1.76.27 2.36.81.6.54 1.03 1.27 1.3 2.19a4.52 4.52 0 0 1 3.18-2.83 5.79 5.79 0 0 1 3.43.2c.59.23 1.09.59 1.5 1.05.41.47.73 1.04.94 1.71.22.68.33 1.46.33 2.33v9.17h-2.53v-9.17c0-1.13-.24-1.98-.73-2.57-.5-.58-1.21-.87-2.15-.87-.41 0-.8.07-1.18.22a2.84 2.84 0 0 0-1.66 1.72c-.17.43-.25.93-.25 1.5v9.17h-2.53v-9.17c0-1.16-.23-2.02-.7-2.59-.46-.57-1.14-.85-2.03-.85-.62 0-1.2.17-1.73.5a5.7 5.7 0 0 0-1.47 1.38v10.73z"/><path id="4hz7b" d="M508 103.88h203.46V32.56H508z"/><path id="4hz7w" d="M650.52 84.73c0 .25-.05.48-.15.69-.1.21-.24.4-.4.57a1.83 1.83 0 0 1-1.27.53c-.25 0-.48-.05-.69-.14a1.85 1.85 0 0 1-1.1-1.65 1.78 1.78 0 0 1 .53-1.29c.17-.16.36-.3.57-.39.21-.1.44-.14.69-.14.24 0 .48.05.7.14a1.85 1.85 0 0 1 1.12 1.68zm-3.1 18.92h2.53v-14.4h-2.53z"/><path id="4hz7x" d="M662 91.62a.56.56 0 0 1-.53.31.99.99 0 0 1-.48-.15l-.66-.35a4.43 4.43 0 0 0-3.36-.35c-.34.1-.63.25-.87.44-.24.2-.43.41-.56.66-.12.25-.19.53-.19.82 0 .37.1.68.32.92.21.25.5.46.85.64s.74.34 1.19.48l1.37.44c.47.16.92.33 1.37.52a5 5 0 0 1 1.2.71c.34.29.62.63.84 1.05.2.4.32.9.32 1.48 0 .66-.12 1.28-.36 1.84a4.03 4.03 0 0 1-1.05 1.47c-.46.4-1.03.73-1.7.97a7 7 0 0 1-2.33.35 7.25 7.25 0 0 1-4.8-1.74l.6-.97a.87.87 0 0 1 .27-.28c.1-.07.24-.1.4-.1.18 0 .36.06.55.2l.69.44a4.45 4.45 0 0 0 2.42.64c.49 0 .92-.07 1.29-.2.37-.12.67-.3.92-.52.25-.21.43-.46.55-.75.11-.28.17-.59.17-.9 0-.4-.1-.74-.32-1-.2-.26-.49-.48-.84-.66a6.92 6.92 0 0 0-1.2-.49l-1.38-.43c-.46-.15-.92-.33-1.37-.52-.45-.2-.85-.44-1.2-.73a3.31 3.31 0 0 1-1.17-2.66 3.83 3.83 0 0 1 1.34-2.92 4.9 4.9 0 0 1 1.6-.92 6.42 6.42 0 0 1 2.17-.34c.95 0 1.8.15 2.55.45.75.3 1.4.7 1.95 1.23z"/><path id="4hz7y" d="M673.9 91.62a.56.56 0 0 1-.52.31.99.99 0 0 1-.48-.15l-.66-.35a4.43 4.43 0 0 0-3.36-.35c-.34.1-.63.25-.87.44-.24.2-.43.41-.56.66-.12.25-.19.53-.19.82 0 .37.1.68.32.92.21.25.5.46.85.64s.74.34 1.19.48l1.37.44c.47.16.92.33 1.37.52a5 5 0 0 1 1.2.71c.34.29.62.63.84 1.05.2.4.32.9.32 1.48 0 .66-.12 1.28-.36 1.84a4.03 4.03 0 0 1-1.05 1.47c-.46.4-1.03.73-1.7.97a7 7 0 0 1-2.33.35 7.25 7.25 0 0 1-4.8-1.74l.6-.97a.87.87 0 0 1 .27-.28c.1-.07.24-.1.4-.1.18 0 .36.06.55.2l.69.44a4.45 4.45 0 0 0 2.42.64c.49 0 .92-.07 1.29-.2.37-.12.67-.3.92-.52.25-.21.43-.46.55-.75.11-.28.17-.59.17-.9 0-.4-.1-.74-.32-1-.2-.26-.49-.48-.84-.66a6.92 6.92 0 0 0-1.2-.49l-1.38-.43c-.46-.15-.92-.33-1.37-.52-.45-.2-.85-.44-1.2-.73a3.31 3.31 0 0 1-1.17-2.66 3.83 3.83 0 0 1 1.34-2.92 4.9 4.9 0 0 1 1.6-.92 6.42 6.42 0 0 1 2.17-.34c.95 0 1.8.15 2.55.45.75.3 1.4.7 1.95 1.23z"/><path id="4hz7z" d="M680.63 84.73c0 .25-.05.48-.15.69a1.99 1.99 0 0 1-.98.96 1.72 1.72 0 0 1-1.38 0 1.85 1.85 0 0 1-1.1-1.65 1.8 1.8 0 0 1 .53-1.29c.17-.16.36-.3.57-.39.21-.1.44-.14.69-.14.24 0 .48.05.7.14a1.86 1.86 0 0 1 1.12 1.68zm-3.1 18.92h2.53v-14.4h-2.53z"/><path id="4hz7A" d="M689.83 89.02c1.05 0 2 .18 2.85.53a6 6 0 0 1 2.15 1.49c.6.64 1.05 1.42 1.37 2.34.31.91.47 1.93.47 3.06 0 1.14-.16 2.16-.47 3.07a6.62 6.62 0 0 1-1.37 2.33 5.91 5.91 0 0 1-2.15 1.49c-.85.34-1.8.52-2.85.52s-2-.18-2.85-.52a5.99 5.99 0 0 1-2.16-1.49 6.64 6.64 0 0 1-1.38-2.33 9.16 9.16 0 0 1-.48-3.07c0-1.13.16-2.15.48-3.06.32-.92.78-1.7 1.38-2.34a6.07 6.07 0 0 1 2.16-1.5c.85-.34 1.8-.52 2.85-.52m0 12.85c1.42 0 2.48-.48 3.18-1.43.7-.95 1.05-2.28 1.05-3.99 0-1.71-.35-3.05-1.05-4-.7-.96-1.76-1.44-3.18-1.44-.72 0-1.34.12-1.87.37s-.98.6-1.33 1.07a4.74 4.74 0 0 0-.8 1.7 9.17 9.17 0 0 0-.26 2.3c0 .86.09 1.62.26 2.3.18.67.44 1.23.8 1.7.35.45.8.8 1.33 1.05s1.15.37 1.87.37"/><path id="4hz7B" d="M699.49 103.65v-14.4h1.5c.36 0 .6.17.69.52l.2 1.57a8.07 8.07 0 0 1 2.09-1.68 5.44 5.44 0 0 1 2.67-.64c.79 0 1.48.13 2.08.4.6.25 1.1.62 1.5 1.1.41.48.72 1.05.92 1.73.21.67.32 1.41.32 2.23v9.17h-2.53v-9.17c0-1.1-.25-1.94-.74-2.54-.5-.6-1.26-.9-2.28-.9-.75 0-1.45.18-2.1.54a6.9 6.9 0 0 0-1.8 1.46v10.6z"/><path id="4hz7C" d="M676.08 58.99V78.4h-4.33V58.03h3.37c.53 0 .96.43.96.96"/><clipPath id="4hz7g"><use xlink:href="#4hz7a"/></clipPath><clipPath id="4hz7v"><use xlink:href="#4hz7b"/></clipPath></defs><g><g transform="translate(-508 -32)"><g><g><use fill="#0066c6" xlink:href="#4hz7c"/></g><g><use fill="#0066c6" xlink:href="#4hz7d"/></g><g><use fill="#1d2757" xlink:href="#4hz7e"/></g><g><use fill="#1d2757" xlink:href="#4hz7f"/></g><g><g/><g clip-path="url(#4hz7g)"><use fill="#1d2757" xlink:href="#4hz7h"/></g></g><g><use fill="#1d2757" xlink:href="#4hz7i"/></g><g><use fill="#1d2757" xlink:href="#4hz7j"/></g><g><use fill="#1d2757" xlink:href="#4hz7k"/></g><g><use fill="#1d2757" xlink:href="#4hz7l"/></g><g><use fill="#1d2757" xlink:href="#4hz7m"/></g><g><use fill="#1d2757" xlink:href="#4hz7n"/></g><g><use fill="#1d2757" xlink:href="#4hz7o"/></g><g><use fill="#1d2757" xlink:href="#4hz7p"/></g><g><use fill="#1d2757" xlink:href="#4hz7q"/></g><g><use fill="#1d2757" xlink:href="#4hz7r"/></g><g><use fill="#1d2757" xlink:href="#4hz7s"/></g><g><use fill="#1d2757" xlink:href="#4hz7t"/></g><g><use fill="#1d2757" xlink:href="#4hz7u"/></g><g/><g clip-path="url(#4hz7v)"><use fill="#1d2757" xlink:href="#4hz7w"/></g><g clip-path="url(#4hz7v)"><use fill="#1d2757" xlink:href="#4hz7x"/></g><g clip-path="url(#4hz7v)"><use fill="#1d2757" xlink:href="#4hz7y"/></g><g clip-path="url(#4hz7v)"><use fill="#1d2757" xlink:href="#4hz7z"/></g><g clip-path="url(#4hz7v)"><use fill="#1d2757" xlink:href="#4hz7A"/></g><g clip-path="url(#4hz7v)"><use fill="#1d2757" xlink:href="#4hz7B"/></g><g clip-path="url(#4hz7v)"><use fill="#1d2757" xlink:href="#4hz7C"/></g></g></g></g></svg>